<?xml version="1.0" encoding="UTF-8" standalone="no"?>
<!-- Created with Inkscape (http://www.inkscape.org/) -->

<svg
   xmlns:osb="http://www.openswatchbook.org/uri/2009/osb"
   xmlns:dc="http://purl.org/dc/elements/1.1/"
   xmlns:cc="http://creativecommons.org/ns#"
   xmlns:rdf="http://www.w3.org/1999/02/22-rdf-syntax-ns#"
   xmlns:svg="http://www.w3.org/2000/svg"
   xmlns="http://www.w3.org/2000/svg"
   xmlns:xlink="http://www.w3.org/1999/xlink"
   xmlns:sodipodi="http://sodipodi.sourceforge.net/DTD/sodipodi-0.dtd"
   xmlns:inkscape="http://www.inkscape.org/namespaces/inkscape"
   width="894.62695"
   height="228.39258"
   id="svg5674"
   version="1.1"
   inkscape:version="0.48.4 r9939"
   sodipodi:docname="dogfeed-logo4.svg">
  <defs
     id="defs5676">
    <linearGradient
       id="linearGradient5474"
       osb:paint="solid">
      <stop
         style="stop-color:#ffffff;stop-opacity:1;"
         offset="0"
         id="stop5476" />
    </linearGradient>
    <linearGradient
       id="linearGradient5696"
       osb:paint="solid">
      <stop
         style="stop-color:#ffffff;stop-opacity:1;"
         offset="0"
         id="stop5698" />
    </linearGradient>
    <linearGradient
       id="linearGradient5701"
       osb:paint="solid">
      <stop
         style="stop-color:#ffffff;stop-opacity:1;"
         offset="0"
         id="stop5703" />
    </linearGradient>
    <linearGradient
       id="linearGradient5706"
       osb:paint="solid">
      <stop
         style="stop-color:#ffffff;stop-opacity:1;"
         offset="0"
         id="stop5708" />
    </linearGradient>
    <linearGradient
       inkscape:collect="always"
       xlink:href="#linearGradient5474"
       id="linearGradient5587"
       gradientUnits="userSpaceOnUse"
       x1="176.03627"
       y1="781.51019"
       x2="291.57089"
       y2="781.51019" />
    <linearGradient
       id="linearGradient5711"
       osb:paint="solid">
      <stop
         style="stop-color:#ffffff;stop-opacity:1;"
         offset="0"
         id="stop5713" />
    </linearGradient>
    <linearGradient
       id="linearGradient5716"
       osb:paint="solid">
      <stop
         style="stop-color:#ffffff;stop-opacity:1;"
         offset="0"
         id="stop5718" />
    </linearGradient>
    <linearGradient
       inkscape:collect="always"
       xlink:href="#linearGradient5412"
       id="linearGradient5416"
       x1="137.85645"
       y1="251.42857"
       x2="338.57211"
       y2="251.42857"
       gradientUnits="userSpaceOnUse" />
    <linearGradient
       id="linearGradient5412"
       osb:paint="solid">
      <stop
         style="stop-color:#000000;stop-opacity:1;"
         offset="0"
         id="stop5414" />
    </linearGradient>
    <linearGradient
       inkscape:collect="always"
       xlink:href="#linearGradient5412"
       id="linearGradient5863"
       gradientUnits="userSpaceOnUse"
       x1="137.85645"
       y1="251.42857"
       x2="338.57211"
       y2="251.42857" />
    <linearGradient
       inkscape:collect="always"
       xlink:href="#linearGradient5474"
       id="linearGradient5865"
       gradientUnits="userSpaceOnUse"
       x1="176.03627"
       y1="781.51019"
       x2="291.57089"
       y2="781.51019" />
    <linearGradient
       inkscape:collect="always"
       xlink:href="#linearGradient5474"
       id="linearGradient5867"
       gradientUnits="userSpaceOnUse"
       x1="176.03627"
       y1="781.51019"
       x2="291.57089"
       y2="781.51019" />
    <linearGradient
       inkscape:collect="always"
       xlink:href="#linearGradient5474"
       id="linearGradient5869"
       gradientUnits="userSpaceOnUse"
       x1="176.03627"
       y1="781.51019"
       x2="291.57089"
       y2="781.51019" />
    <linearGradient
       inkscape:collect="always"
       xlink:href="#linearGradient5474"
       id="linearGradient5871"
       gradientUnits="userSpaceOnUse"
       x1="176.03627"
       y1="781.51019"
       x2="291.57089"
       y2="781.51019" />
    <linearGradient
       inkscape:collect="always"
       xlink:href="#linearGradient5474"
       id="linearGradient5873"
       gradientUnits="userSpaceOnUse"
       x1="176.03627"
       y1="781.51019"
       x2="291.57089"
       y2="781.51019" />
    <linearGradient
       inkscape:collect="always"
       xlink:href="#linearGradient5474"
       id="linearGradient5875"
       gradientUnits="userSpaceOnUse"
       x1="176.03627"
       y1="781.51019"
       x2="291.57089"
       y2="781.51019" />
  </defs>
  <sodipodi:namedview
     id="base"
     pagecolor="#ffffff"
     bordercolor="#666666"
     borderopacity="1.0"
     inkscape:pageopacity="0"
     inkscape:pageshadow="2"
     inkscape:zoom="0.98994949"
     inkscape:cx="450.09596"
     inkscape:cy="54.891088"
     inkscape:document-units="px"
     inkscape:current-layer="layer1"
     showgrid="false"
     width="1000px"
     inkscape:window-width="1171"
     inkscape:window-height="813"
     inkscape:window-x="292"
     inkscape:window-y="99"
     inkscape:window-maximized="0"
     fit-margin-top="0"
     fit-margin-left="0"
     fit-margin-right="0"
     fit-margin-bottom="0" />
  <metadata
     id="metadata5679">
    <rdf:RDF>
      <cc:Work
         rdf:about="">
        <dc:format>image/svg+xml</dc:format>
        <dc:type
           rdf:resource="http://purl.org/dc/dcmitype/StillImage" />
        <dc:title />
      </cc:Work>
    </rdf:RDF>
  </metadata>
  <g
     inkscape:label="Layer 1"
     inkscape:groupmode="layer"
     id="layer1"
     transform="translate(-28.69503,-793.41962)">
    <path
       transform="matrix(0.64590519,0,0,0.57663165,109.85043,759.0948)"
       sodipodi:type="arc"
       style="fill:url(#linearGradient5863);fill-opacity:1;stroke:#000000;stroke-width:10;stroke-linecap:butt;stroke-linejoin:bevel;stroke-miterlimit:4;stroke-opacity:1;stroke-dasharray:none"
       id="path3966"
       sodipodi:cx="238.21428"
       sodipodi:cy="251.42857"
       sodipodi:rx="95.35714"
       sodipodi:ry="100"
       d="m 142.89252,254.15224 c -1.4344,-55.20798 40.07979,-101.18233 92.72455,-102.68657 52.64475,-1.50424 96.48457,42.03125 97.91897,97.23924 1.4344,55.20798 -40.07979,101.18232 -92.72455,102.68656 -52.55681,1.50173 -96.35638,-41.89096 -97.91257,-97.00302 l 95.31536,-2.95988 z"
       sodipodi:start="3.1143526"
       sodipodi:end="9.3951749" />
    <g
       id="g5569"
       transform="matrix(0.5524261,0,0,0.47101231,131.69362,526.5993)">
      <path
         inkscape:export-ydpi="99.540001"
         inkscape:export-xdpi="99.540001"
         inkscape:export-filename="/home/nkj/Pictures/dogfeed-logo.png"
         transform="matrix(1.4573902,0,0,1.746157,-224.89475,9.7941167)"
         sodipodi:end="9.2960387"
         sodipodi:start="3.1569346"
         d="m 336.07255,422.94498 c 0.081,-4.73331 4.42334,-8.51155 9.69901,-8.43892 5.27568,0.0726 9.48683,3.9686 9.40589,8.70191 -0.081,4.73332 -4.42334,8.51155 -9.69901,8.43893 -4.74586,-0.0653 -8.71859,-3.24676 -9.32795,-7.46999 l 9.47451,-1.10043 z"
         sodipodi:ry="8.5714283"
         sodipodi:rx="9.5535717"
         sodipodi:cy="423.07648"
         sodipodi:cx="345.625"
         id="path3765"
         style="fill:url(#linearGradient5865);fill-opacity:1;fill-rule:nonzero;stroke:#ffffff;stroke-width:6.26859808;stroke-linecap:round;stroke-linejoin:round;stroke-miterlimit:4;stroke-opacity:1;stroke-dasharray:none"
         sodipodi:type="arc" />
      <path
         inkscape:export-ydpi="99.540001"
         inkscape:export-xdpi="99.540001"
         inkscape:export-filename="/home/nkj/Pictures/dogfeed-logo.png"
         sodipodi:type="arc"
         style="fill:url(#linearGradient5867);fill-opacity:1;fill-rule:nonzero;stroke:#ffffff;stroke-width:6.26859808;stroke-linecap:round;stroke-linejoin:round;stroke-miterlimit:4;stroke-opacity:1;stroke-dasharray:none"
         id="path3769"
         sodipodi:cx="345.625"
         sodipodi:cy="423.07648"
         sodipodi:rx="9.5535717"
         sodipodi:ry="8.5714283"
         d="m 336.07255,422.94498 c 0.081,-4.73331 4.42334,-8.51155 9.69901,-8.43892 5.27568,0.0726 9.48683,3.9686 9.40589,8.70191 -0.081,4.73332 -4.42334,8.51155 -9.69901,8.43893 -4.74586,-0.0653 -8.71859,-3.24676 -9.32795,-7.46999 l 9.47451,-1.10043 z"
         sodipodi:start="3.1569346"
         sodipodi:end="9.2960387"
         transform="matrix(1.4573902,0,0,1.746157,-204.07489,35.728242)" />
      <path
         inkscape:export-ydpi="99.540001"
         inkscape:export-xdpi="99.540001"
         inkscape:export-filename="/home/nkj/Pictures/dogfeed-logo.png"
         transform="matrix(1.4573902,0,0,1.746157,-334.03505,93.101967)"
         sodipodi:end="9.2960387"
         sodipodi:start="3.1569346"
         d="m 336.07255,422.94498 c 0.081,-4.73331 4.42334,-8.51155 9.69901,-8.43892 5.27568,0.0726 9.48683,3.9686 9.40589,8.70191 -0.081,4.73332 -4.42334,8.51155 -9.69901,8.43893 -4.74586,-0.0653 -8.71859,-3.24676 -9.32795,-7.46999 l 9.47451,-1.10043 z"
         sodipodi:ry="8.5714283"
         sodipodi:rx="9.5535717"
         sodipodi:cy="423.07648"
         sodipodi:cx="345.625"
         id="path3771"
         style="fill:url(#linearGradient5869);fill-opacity:1;fill-rule:nonzero;stroke:#ffffff;stroke-width:6.26859808;stroke-linecap:round;stroke-linejoin:round;stroke-miterlimit:4;stroke-opacity:1;stroke-dasharray:none"
         sodipodi:type="arc" />
      <path
         inkscape:export-ydpi="99.540001"
         inkscape:export-xdpi="99.540001"
         inkscape:export-filename="/home/nkj/Pictures/dogfeed-logo.png"
         sodipodi:type="arc"
         style="fill:url(#linearGradient5871);fill-opacity:1;fill-rule:nonzero;stroke:#ffffff;stroke-width:6.26859808;stroke-linecap:round;stroke-linejoin:round;stroke-miterlimit:4;stroke-opacity:1;stroke-dasharray:none"
         id="path3773"
         sodipodi:cx="345.625"
         sodipodi:cy="423.07648"
         sodipodi:rx="9.5535717"
         sodipodi:ry="8.5714283"
         d="m 336.07255,422.94498 c 0.081,-4.73331 4.42334,-8.51155 9.69901,-8.43892 5.27568,0.0726 9.48683,3.9686 9.40589,8.70191 -0.081,4.73332 -4.42334,8.51155 -9.69901,8.43893 -4.74586,-0.0653 -8.71859,-3.24676 -9.32795,-7.46999 l 9.47451,-1.10043 z"
         sodipodi:start="3.1569346"
         sodipodi:end="9.2960387"
         transform="matrix(1.4573902,0,0,1.746157,-314.42014,118.04708)" />
      <a
         transform="matrix(1.4573902,0,0,1.746157,-104.08669,-563.96097)"
         id="a3899"
         style="fill:url(#linearGradient5875);fill-opacity:1;fill-rule:nonzero;stroke:#ffffff;stroke-width:6.26859808;stroke-miterlimit:4;stroke-opacity:1;stroke-dasharray:none">
        <rect
           style="fill:url(#linearGradient5873);fill-opacity:1;fill-rule:nonzero;stroke:#ffffff;stroke-width:6.26859808;stroke-linecap:round;stroke-linejoin:round;stroke-miterlimit:4;stroke-opacity:1;stroke-dasharray:none"
           id="rect3775"
           width="8.5714283"
           height="78.571426"
           x="784.0481"
           y="176.68936"
           ry="4.2857141"
           transform="matrix(0.52489729,0.85116558,-0.85116558,0.52489729,0,0)"
           inkscape:export-filename="/home/nkj/Pictures/dogfeed-logo.png"
           inkscape:export-xdpi="99.540001"
           inkscape:export-ydpi="99.540001" />
      </a>
    </g>
    <g
       style="font-size:40px;font-style:normal;font-variant:normal;font-weight:bold;font-stretch:normal;line-height:125%;letter-spacing:0px;word-spacing:0px;fill:#000000;fill-opacity:1;stroke:none;font-family:AR PL New Kai ExtB;-inkscape-font-specification:AR PL New Kai ExtB Bold"
       id="text5877">
      <path
         d="m 84.810265,934.7204 c -6.2e-5,7.78387 1.667905,12.94663 5.003906,15.48828 3.335867,2.54168 9.49146,3.81251 18.466799,3.8125 5.00381,1e-5 9.968,-1.03254 14.89258,-3.09766 5.0038,-2.14451 9.80913,-5.40102 14.41601,-9.76953 4.68608,-4.44789 8.49858,-10.68291 11.4375,-18.70508 2.93867,-8.10151 4.40807,-17.43418 4.4082,-27.99804 -1.3e-4,-8.4192 -0.31783,-15.88533 -0.95312,-22.39844 -0.55612,-6.51292 -1.94609,-13.42307 -4.16992,-20.73047 -2.14466,-7.30717 -5.04374,-13.34362 -8.69727,-18.10937 -3.65376,-4.84492 -8.85623,-8.85598 -15.60742,-12.03321 -6.7514,-3.17694 -14.77352,-4.76548 -24.066406,-4.76562 -10.087307,1.4e-4 -15.130921,6.11602 -15.130859,18.34765 l 0,99.95899 m -16.798829,29.07031 -37.648437,0.47656 c -1.111986,-0.63541 -1.667975,-1.98567 -1.667969,-4.05078 -6e-6,-2.14452 0.555983,-3.57421 1.667969,-4.28906 4.05077,-0.15885 7.068996,-0.43684 9.054687,-0.83399 1.985659,-0.39712 3.971334,-1.27082 5.957032,-2.62109 2.065079,-1.42967 3.455052,-3.61392 4.169922,-6.55273 0.714816,-3.01821 1.072237,-6.98956 1.072265,-11.91407 l 0,-97.81445 c -2.8e-5,-4.84492 -0.357449,-8.77656 -1.072265,-11.79492 -0.71487,-3.01809 -2.104843,-5.20233 -4.169922,-6.55274 -1.985698,-1.42954 -3.971373,-2.34295 -5.957032,-2.74023 -1.906264,-0.39699 -4.92449,-0.67498 -9.054687,-0.83398 -1.111986,-0.79412 -1.667975,-2.1841 -1.667969,-4.16993 -6e-6,-1.98552 0.555983,-3.37549 1.667969,-4.16992 18.506484,0.31787 31.055951,0.47672 37.648437,0.47656 2.938754,1.6e-4 8.022083,-0.0395 15.25,-0.11914 7.227797,-0.0793 13.105396,-0.11898 17.632814,-0.11914 28.7525,1.6e-4 50.8332,7.74429 66.24219,23.23243 15.40869,15.40897 23.11311,35.06715 23.11328,58.9746 -1.7e-4,12.23184 -1.78728,23.23248 -5.36133,33.00196 -3.57438,9.76956 -8.37971,17.2357 -14.41602,22.39844 -15.64726,13.66146 -36.61599,20.49218 -62.90625,20.49218 -3.25659,0 -9.849029,-0.0794 -19.77734,-0.23828 -9.92844,-0.15885 -16.520882,-0.23828 -19.777344,-0.23828"
         style="font-size:244px;font-family:Linux Libertine;-inkscape-font-specification:Linux Libertine Bold"
         id="path3078" />
      <path
         d="m 394.81417,893.49774 c -7e-5,-19.22126 -5.44082,-28.79222 -16.32226,-28.71289 -4.84511,10e-5 -8.37961,1.86663 -10.60352,5.59961 -2.224,3.73316 -3.33598,10.04761 -3.33594,18.94336 -4e-5,20.33339 5.67899,30.50004 17.03711,30.5 3.89187,4e-5 7.06895,-1.74735 9.53125,-5.24219 2.46217,-3.49474 3.69329,-10.52403 3.69336,-21.08789 m -28.11719,76.36914 c -4.68623,0 -8.26045,-0.47657 -10.72265,-1.42969 -1.82686,3.25651 -2.70055,9.53124 -2.6211,18.82422 -3e-5,6.51299 2.54164,12.19203 7.625,17.03709 5.16272,4.845 11.63602,7.2676 19.41993,7.2676 13.89966,0 23.66919,-1.5886 29.30859,-4.7656 3.81241,-2.1446 6.75121,-5.4011 8.81641,-9.76956 2.065,-4.28909 3.09755,-8.77671 3.09765,-13.46289 -1e-4,-9.13412 -18.30802,-13.70117 -54.92383,-13.70117 m 71.2461,-102.22265 c -2.78006,9e-5 -5.2423,-0.8736 -7.38672,-2.6211 -2.06521,-1.82672 -3.41547,-3.73297 -4.05078,-5.71875 -0.95323,-1.98557 -2.50206,-2.93869 -4.64649,-2.85937 -1.27093,10e-5 -3.41546,0.8738 -6.43359,2.62109 -3.01832,1.66807 -5.00399,3.05805 -5.95703,4.16992 10.08714,8.26051 15.13076,18.10946 15.13086,29.54688 -1e-4,10.24615 -4.01117,18.86398 -12.03321,25.85351 -7.94278,6.98963 -18.66543,10.48441 -32.16796,10.48438 -8.18104,3e-5 -14.13807,-0.87366 -17.8711,-2.6211 -0.15889,0.31775 -0.63545,1.23116 -1.42969,2.74024 -0.71488,1.50915 -1.27087,2.85941 -1.66796,4.05078 -0.31775,1.11201 -0.4766,2.2637 -0.47657,3.45508 -3e-5,6.83075 3.65361,10.24611 10.96094,10.24609 12.23171,2e-5 24.90032,0.63544 38.00586,1.90625 13.1848,1.27085 21.92177,3.29624 26.21094,6.07617 8.10144,5.5599 12.15222,12.98633 12.15234,22.2793 -1.2e-4,12.70831 -7.62511,23.3118 -22.875,31.8105 -15.17066,8.4987 -31.7709,12.748 -49.80078,12.7481 -17.23571,-10e-5 -29.70575,-2.6609 -37.41016,-7.9824 -6.35417,-4.3686 -9.49154,-12.4304 -9.41211,-24.18557 0,-2.30341 2.30338,-6.23505 6.91016,-11.79493 4.60676,-5.48047 9.37238,-9.6901 14.29688,-12.6289 -4.68622,-1.42969 -8.02216,-3.69336 -10.00782,-6.79102 -2.14454,-3.09765 -3.2168,-6.83071 -3.21679,-11.19922 -10e-6,-2.30336 2.1048,-5.99672 6.31445,-11.08007 4.28904,-5.08331 8.61781,-9.4915 12.98633,-13.22461 -5.71878,-3.17704 -10.28583,-7.66467 -13.70117,-13.46289 -3.41538,-5.79812 -5.12306,-11.75515 -5.12305,-17.8711 -10e-6,-11.6757 5.52016,-21.12751 16.56055,-28.35547 7.94267,-5.24208 17.55334,-7.82346 28.83203,-7.74414 10.08717,1.1e-4 16.91789,0.95323 20.49218,2.85938 4.0507,-3.57411 9.13403,-6.87033 15.25,-9.88867 6.11579,-3.01812 11.67568,-4.52723 16.67969,-4.52735 4.36838,1.2e-4 8.06173,1.31067 11.08008,3.93164 3.09753,2.62121 4.64636,5.2423 4.64648,7.86328 -0.0796,7.94281 -3.69348,11.91416 -10.84179,11.91407"
         style="font-size:244px;font-family:Linux Libertine;-inkscape-font-specification:Linux Libertine Bold"
         id="path3080" />
      <path
         d="m 507.40206,932.57587 c -5e-5,9.9284 1.15164,16.24285 3.45508,18.94336 2.38275,2.6211 7.50579,4.0905 15.36914,4.4082 0.7942,0.63542 1.19133,2.0254 1.19141,4.16992 -8e-5,2.14453 -0.39721,3.53451 -1.19141,4.16992 -13.97923,-0.31771 -25.53586,-0.47656 -34.66992,-0.47656 -9.45186,0 -21.00848,0.15885 -34.66992,0.47656 -0.79428,-0.63541 -1.19141,-1.98567 -1.19141,-4.05078 0,-2.14452 0.39713,-3.57421 1.19141,-4.28906 7.78384,-0.3177 12.86717,-1.7871 15.25,-4.4082 2.38279,-2.70051 3.57419,-8.8561 3.57422,-18.4668 l 0,-62.90625 -12.27149,0 c -4.3685,9e-5 -6.55274,-0.83389 -6.55273,-2.50195 l 0,-6.55274 c -10e-6,-2.14442 6.11587,-3.21669 18.34765,-3.2168 l 0.47657,0 0,-4.88476 c -3e-5,-10.56368 1.5488,-19.30065 4.64648,-26.21094 3.09762,-6.91001 7.30725,-13.30388 12.62891,-19.18164 8.81635,-9.45166 20.29355,-14.17756 34.43164,-14.17773 11.51684,1.7e-4 19.97581,1.98584 25.37695,5.95703 5.40093,3.89209 8.10145,7.94286 8.10156,12.15234 -1.1e-4,5.00406 -1.27094,8.85626 -3.8125,11.55664 -2.54177,2.70066 -5.91742,4.05092 -10.12695,4.05078 -4.20973,1.4e-4 -7.86337,-1.27069 -10.96094,-3.8125 -3.09774,-2.62095 -5.24227,-5.99659 -6.43359,-10.12695 -0.9532,-3.57406 -1.8269,-6.0363 -2.6211,-7.38672 -0.79434,-1.3501 -2.18431,-2.02523 -4.16992,-2.02539 -1.2709,1.6e-4 -2.54173,0.27816 -3.8125,0.83399 -1.19147,0.55614 -2.54173,1.70784 -4.05078,3.45507 -1.42975,1.66813 -2.70058,3.97151 -3.8125,6.91016 -1.03261,2.93895 -1.90631,7.02944 -2.62109,12.27148 -0.7149,5.1629 -1.07232,11.23906 -1.07227,18.22852 l 0,12.39062 24.66211,0 c 3.25643,1.1e-4 4.88468,0.83409 4.88477,2.50196 l 0,5.59961 c -9e-5,2.78004 -2.85946,4.17001 -8.57813,4.16992 l -20.96875,0 0,62.42969"
         style="font-size:244px;font-family:Linux Libertine;-inkscape-font-specification:Linux Libertine Bold"
         id="path3082" />
      <path
         d="m 589.72823,896.71454 33.24024,0 c 0.31763,-0.31764 0.47648,-2.02532 0.47656,-5.12305 -8e-5,-8.81632 -1.58862,-15.32934 -4.76562,-19.53906 -3.17716,-4.20954 -6.79109,-6.31436 -10.8418,-6.31445 -1.82688,9e-5 -4.05084,0.75465 -6.67188,2.26367 -2.54172,1.42978 -4.72596,3.41545 -6.55273,5.95703 -2.93885,4.448 -4.5671,12.03328 -4.88477,22.75586 m 62.07227,35.62305 c 2.46213,3e-5 3.65354,2.50198 3.57422,7.50585 -12.07302,17.5534 -27.28329,26.33008 -45.63086,26.33008 -16.75916,0 -29.58662,-4.05078 -38.48242,-12.15234 -10.40497,-9.4518 -15.60743,-22.31898 -15.60743,-38.60156 0,-17.71218 5.67903,-32.12818 17.03711,-43.24805 11.35804,-11.11969 23.98693,-16.67958 37.88672,-16.67969 8.65748,1.1e-4 15.96477,1.27094 21.92188,3.8125 6.03636,2.46234 10.52399,5.91742 13.46289,10.36524 3.01813,4.36858 5.16265,8.93563 6.43359,13.70117 1.35016,4.68627 2.02528,9.84903 2.02539,15.48828 -1.1e-4,5.00397 -2.3432,7.54563 -7.02929,7.625 l -58.61719,0 c -4e-5,0.31777 -0.0398,0.87375 -0.11914,1.66797 -0.0795,0.79432 -0.11918,1.50917 -0.11914,2.14453 -4e-5,11.67582 2.66076,20.41279 7.98242,26.21094 5.40099,5.7982 12.98626,8.69728 22.75586,8.69726 13.26424,0.0794 24.10602,-4.20961 32.52539,-12.86718"
         style="font-size:244px;font-family:Linux Libertine;-inkscape-font-specification:Linux Libertine Bold"
         id="path3084" />
      <path
         d="m 710.77511,896.71454 33.24023,0 c 0.31763,-0.31764 0.47649,-2.02532 0.47657,-5.12305 -8e-5,-8.81632 -1.58862,-15.32934 -4.76563,-19.53906 -3.17715,-4.20954 -6.79108,-6.31436 -10.8418,-6.31445 -1.82688,9e-5 -4.05084,0.75465 -6.67187,2.26367 -2.54172,1.42978 -4.72596,3.41545 -6.55274,5.95703 -2.93884,4.448 -4.5671,12.03328 -4.88476,22.75586 m 62.07226,35.62305 c 2.46214,3e-5 3.65354,2.50198 3.57422,7.50585 -12.07301,17.5534 -27.28328,26.33008 -45.63086,26.33008 -16.75916,0 -29.58662,-4.05078 -38.48242,-12.15234 -10.40496,-9.4518 -15.60743,-22.31898 -15.60742,-38.60156 -10e-6,-17.71218 5.67902,-32.12818 17.03711,-43.24805 11.35803,-11.11969 23.98693,-16.67958 37.88672,-16.67969 8.65748,1.1e-4 15.96476,1.27094 21.92187,3.8125 6.03637,2.46234 10.52399,5.91742 13.46289,10.36524 3.01813,4.36858 5.16266,8.93563 6.4336,13.70117 1.35015,4.68627 2.02528,9.84903 2.02539,15.48828 -1.1e-4,5.00397 -2.34321,7.54563 -7.0293,7.625 l -58.61719,0 c -4e-5,0.31777 -0.0398,0.87375 -0.11914,1.66797 -0.0795,0.79432 -0.11918,1.50917 -0.11914,2.14453 -4e-5,11.67582 2.66076,20.41279 7.98242,26.21094 5.40099,5.7982 12.98627,8.69728 22.75586,8.69726 13.26424,0.0794 24.10603,-4.20961 32.52539,-12.86718"
         style="font-size:244px;font-family:Linux Libertine;-inkscape-font-specification:Linux Libertine Bold"
         id="path3086" />
      <path
         d="m 874.47433,940.67743 c -0.0795,-2.06508 -0.11923,-4.13018 -0.11914,-6.19531 l 0,-60.04688 c -2.70061,-3.65355 -5.48055,-5.99665 -8.33985,-7.0293 -2.78002,-1.11188 -6.11595,-1.66787 -10.00781,-1.66796 -7.78391,9e-5 -13.78065,3.49488 -17.99023,10.48437 -4.05083,6.67196 -6.11593,17.23575 -6.19532,31.69141 -4e-5,13.6615 2.02535,24.10615 6.07618,31.33398 4.13015,7.22788 9.37233,10.84181 15.72656,10.8418 1.50905,10e-6 4.72584,-1.07225 9.65039,-3.2168 5.00383,-2.14451 8.73689,-4.20961 11.19922,-6.19531 m 0.71484,11.4375 -2.02539,0 c -4.05086,2.77996 -9.29304,5.8379 -15.72656,9.17383 -6.43366,3.25651 -11.11985,4.88476 -14.0586,4.88476 -6.35421,0 -11.47725,-0.75456 -15.36914,-2.26367 -3.89196,-1.50911 -8.30016,-4.16992 -13.22461,-7.98242 -5.71877,-4.36848 -10.00782,-10.24608 -12.86718,-17.63281 -2.77996,-7.38669 -4.16993,-15.01168 -4.16993,-22.875 0,-16.12364 5.87759,-30.1425 17.63282,-42.05664 11.83459,-11.91396 25.61518,-17.87099 41.34179,-17.8711 6.51295,1.1e-4 12.39055,0.91352 17.63282,2.74024 l 0,-31.81055 c -9e-5,-8.26027 -0.83407,-13.18475 -2.50196,-14.77344 -1.58862,-1.66781 -6.27481,-2.85922 -14.05859,-3.57422 -1.2709,-2.30322 -1.5489,-5.04346 -0.83398,-8.2207 20.17439,-0.79411 35.46408,-2.93863 45.86914,-6.43359 2.62097,1.7e-4 3.93152,1.07243 3.93164,3.21679 -0.47668,6.03662 -0.71496,14.33674 -0.71485,24.90039 l 0,109.84766 c -1.1e-4,6.98961 0.99272,11.75523 2.97852,14.29688 2.06498,2.46225 6.35404,4.01108 12.86719,4.64648 0.95299,3.09767 1.11184,5.71876 0.47656,7.86328 -13.82043,1.82683 -27.32302,4.48763 -40.50781,7.98242 -3.57431,0 -5.44085,-1.35026 -5.59961,-4.05078 -0.39723,-2.85937 -0.75465,-6.1953 -1.07227,-10.00781"
         style="font-size:244px;font-family:Linux Libertine;-inkscape-font-specification:Linux Libertine Bold"
         id="path3088" />
    </g>
  </g>
</svg>
