<?xml version="1.0" encoding="UTF-8" standalone="no"?>
<!-- Created with Inkscape (http://www.inkscape.org/) -->

<svg
   xmlns:dc="http://purl.org/dc/elements/1.1/"
   xmlns:cc="http://creativecommons.org/ns#"
   xmlns:rdf="http://www.w3.org/1999/02/22-rdf-syntax-ns#"
   xmlns:svg="http://www.w3.org/2000/svg"
   xmlns="http://www.w3.org/2000/svg"
   xmlns:xlink="http://www.w3.org/1999/xlink"
   xmlns:sodipodi="http://sodipodi.sourceforge.net/DTD/sodipodi-0.dtd"
   xmlns:inkscape="http://www.inkscape.org/namespaces/inkscape"
   width="452.08124"
   height="144"
   id="svg2"
   version="1.1"
   inkscape:version="0.48.3.1 r9886"
   sodipodi:docname="sockethub.svg"
   inkscape:export-filename="sockethub.png"
   inkscape:export-xdpi="99.540001"
   inkscape:export-ydpi="99.540001">
  <defs
     id="defs4">
    <linearGradient
       id="linearGradient4084">
      <stop
         style="stop-color:#ff9c1f;stop-opacity:1;"
         offset="0"
         id="stop4086" />
      <stop
         id="stop4094"
         offset="0.23809524"
         style="stop-color:#f23c00;stop-opacity:1;" />
      <stop
         style="stop-color:#de0f3c;stop-opacity:0.82467532;"
         offset="1"
         id="stop4088" />
    </linearGradient>
    <radialGradient
       inkscape:collect="always"
       xlink:href="#linearGradient4084"
       id="radialGradient4092"
       cx="204"
       cy="528"
       fx="204"
       fy="528"
       r="40"
       gradientTransform="matrix(1,0,0,1.8,0,-422.4)"
       gradientUnits="userSpaceOnUse" />
  </defs>
  <sodipodi:namedview
     id="base"
     pagecolor="#ffffff"
     bordercolor="#666666"
     borderopacity="1.0"
     inkscape:pageopacity="0.0"
     inkscape:pageshadow="2"
     inkscape:zoom="0.70000001"
     inkscape:cx="361.6454"
     inkscape:cy="234.41291"
     inkscape:document-units="px"
     inkscape:current-layer="layer1"
     showgrid="true"
     inkscape:window-width="1280"
     inkscape:window-height="773"
     inkscape:window-x="0"
     inkscape:window-y="-1"
     inkscape:window-maximized="1"
     fit-margin-top="0"
     fit-margin-left="0"
     fit-margin-right="0"
     fit-margin-bottom="0">
    <inkscape:grid
       type="xygrid"
       id="grid2994"
       empspacing="4"
       visible="true"
       enabled="true"
       snapvisiblegridlinesonly="true"
       dotted="true"
       originx="-127.81429px"
       originy="0px" />
  </sodipodi:namedview>
  <metadata
     id="metadata7">
    <rdf:RDF>
      <cc:Work
         rdf:about="">
        <dc:format>image/svg+xml</dc:format>
        <dc:type
           rdf:resource="http://purl.org/dc/dcmitype/StillImage" />
        <dc:title></dc:title>
      </cc:Work>
    </rdf:RDF>
  </metadata>
  <g
     inkscape:label="Layer 1"
     inkscape:groupmode="layer"
     id="layer1"
     transform="translate(-127.81429,-908.36218)">
    <path
       inkscape:connector-curvature="0"
       id="path4044"
       style="font-size:100px;font-style:normal;font-variant:normal;font-weight:bold;font-stretch:normal;line-height:125%;letter-spacing:0px;word-spacing:0px;fill:#000000;fill-opacity:1;stroke:none;font-family:Source Sans Pro;-inkscape-font-specification:Source Sans Pro Bold"
       d="m 134.41429,991.74789 c 2.26665,1.73334 4.43332,3.03334 6.5,3.9 2.06665,0.86667 4.16664,1.30001 6.3,1.3 2.19997,10e-6 3.79997,-0.36666 4.8,-1.1 0.99997,-0.73332 1.49997,-1.76666 1.5,-3.1 -3e-5,-0.79999 -0.30003,-1.49999 -0.9,-2.1 -0.53336,-0.66665 -1.30003,-1.26665 -2.3,-1.8 -0.93336,-0.53332 -2.00003,-0.99998 -3.2,-1.4 -1.20002,-0.46665 -2.43336,-0.96665 -3.7,-1.5 -1.53335,-0.59998 -3.06668,-1.29998 -4.6,-2.1 -1.53335,-0.79998 -2.93335,-1.76664 -4.2,-2.9 -1.26668,-1.19997 -2.30001,-2.56664 -3.1,-4.1 -0.80001,-1.59997 -1.20001,-3.4333 -1.2,-5.5 -1e-5,-2.26663 0.43333,-4.36663 1.3,-6.3 0.93332,-1.93329 2.23332,-3.56662 3.9,-4.9 1.66665,-1.33329 3.66665,-2.36662 6,-3.1 2.33331,-0.79995 4.93331,-1.19995 7.8,-1.2 3.79997,5e-5 7.1333,0.66671 10,2 2.86663,1.26671 5.36662,2.70004 7.5,4.3 l -6.6,8.8 c -1.80004,-1.3333 -3.5667,-2.36663 -5.3,-3.1 -1.73336,-0.7333 -3.4667,-1.09996 -5.2,-1.1 -3.73336,4e-5 -5.60002,1.30004 -5.6,3.9 -2e-5,0.80003 0.26664,1.50003 0.8,2.1 0.53331,0.53336 1.23331,1.03336 2.1,1.5 0.93331,0.4667 1.96664,0.93336 3.1,1.4 1.19997,0.40003 2.4333,0.83336 3.7,1.3 1.59997,0.60003 3.16663,1.30003 4.7,2.1 1.59996,0.73336 3.03329,1.66669 4.3,2.8 1.33329,1.13336 2.39996,2.53335 3.2,4.2 0.79996,1.60002 1.19996,3.53335 1.2,5.8 -4e-5,2.26668 -0.43338,4.36668 -1.3,6.3 -0.86671,1.93331 -2.16671,3.63331 -3.9,5.10001 -1.73337,1.4 -3.8667,2.5333 -6.4,3.4 -2.53336,0.8 -5.46669,1.2 -8.8,1.2 -3.26669,0 -6.63335,-0.6333 -10.1,-1.9 -3.40001,-1.2667 -6.36667,-2.9333 -8.9,-5 l 6.6,-9.20001" />
    <path
       inkscape:connector-curvature="0"
       id="path4048"
       style="font-size:100px;font-style:normal;font-variant:normal;font-weight:bold;font-stretch:normal;line-height:125%;letter-spacing:0px;word-spacing:0px;fill:#000000;fill-opacity:1;stroke:none;font-family:Source Sans Pro;-inkscape-font-specification:Source Sans Pro Bold"
       d="m 229.11897,981.84789 c 0,-4.13331 0.7,-7.79997 2.1,-11 1.4,-3.26663 3.26666,-5.99996 5.6,-8.2 2.39999,-2.19996 5.16665,-3.86662 8.3,-5 3.13331,-1.19995 6.39998,-1.79995 9.8,-1.8 3.06664,5e-5 5.8333,0.53338 8.3,1.6 2.46663,1.00005 4.5333,2.36671 6.2,4.1 l -6.7,9.1 c -2.33336,-1.9333 -4.63336,-2.89996 -6.9,-2.9 -3.60002,4e-5 -6.43335,1.2667 -8.5,3.8 -2.06668,2.53336 -3.10001,5.96669 -3.1,10.3 -1e-5,4.33335 1.03332,7.76668 3.1,10.3 2.13331,2.53334 4.79998,3.80001 8,3.8 1.79997,10e-6 3.4333,-0.36666 4.9,-1.1 1.46663,-0.73332 2.79997,-1.56666 4,-2.5 l 5.9,9.30001 c -2.40004,2.1333 -5.0667,3.7 -8,4.7 -2.93336,1 -5.76669,1.5 -8.5,1.5 -3.46669,0 -6.70002,-0.5667 -9.7,-1.7 -2.93334,-1.2 -5.50001,-2.9 -7.7,-5.1 -2.2,-2.2 -3.93334,-4.9 -5.2,-8.10001 -1.26667,-3.26665 -1.9,-6.96665 -1.9,-11.1" />
    <path
       inkscape:connector-curvature="0"
       id="path4050"
       style="font-size:100px;font-style:normal;font-variant:normal;font-weight:bold;font-stretch:normal;line-height:125%;letter-spacing:0px;word-spacing:0px;fill:#000000;fill-opacity:1;stroke:none;font-family:Source Sans Pro;-inkscape-font-specification:Source Sans Pro Bold"
       d="m 278.69866,936.54789 14.3,0 0,40.2 0.4,0 15.7,-19.7 16,0 -17.4,20.4 18.7,29.20001 -15.9,0 -11.2,-19.30001 -6.3,7.1 0,12.20001 -14.3,0 0,-70.10001" />
    <path
       inkscape:connector-curvature="0"
       id="path4052"
       style="font-size:100px;font-style:normal;font-variant:normal;font-weight:bold;font-stretch:normal;line-height:125%;letter-spacing:0px;word-spacing:0px;fill:#000000;fill-opacity:1;stroke:none;font-family:Source Sans Pro;-inkscape-font-specification:Source Sans Pro Bold"
       d="m 327.9471,981.84789 c 0,-3.99997 0.66666,-7.59997 2,-10.8 1.33333,-3.26663 3.06666,-5.99996 5.2,-8.2 2.19999,-2.26662 4.69998,-3.99995 7.5,-5.2 2.79998,-1.19995 5.69998,-1.79995 8.7,-1.8 3.5333,5e-5 6.59997,0.60005 9.2,1.8 2.66663,1.20005 4.86662,2.86671 6.6,5 1.79995,2.13337 3.13329,4.6667 4,7.6 0.86662,2.8667 1.29995,6.00003 1.3,9.4 -5e-5,1.33336 -0.0667,2.56669 -0.2,3.7 -0.13338,1.06669 -0.26671,1.90002 -0.4,2.5 l -29.7,0 c 0.66665,3.80002 2.13331,6.56668 4.4,8.3 2.33331,1.66668 5.16664,2.50001 8.5,2.5 3.5333,1e-5 7.09996,-1.09999 10.7,-3.3 l 4.9,8.90001 c -2.53338,1.7333 -5.36671,3.1 -8.5,4.1 -3.0667,1 -6.10003,1.5 -9.1,1.5 -3.53336,0 -6.83336,-0.5667 -9.9,-1.7 -3.06668,-1.2 -5.73335,-2.9 -8,-5.1 -2.26668,-2.26667 -4.03334,-5 -5.3,-8.20001 -1.26667,-3.19998 -1.9,-6.86665 -1.9,-11 m 32,-5.1 c -4e-5,-2.86664 -0.63337,-5.19997 -1.9,-7 -1.2667,-1.79996 -3.40003,-2.69996 -6.4,-2.7 -2.33336,4e-5 -4.40002,0.80004 -6.2,2.4 -1.73335,1.53337 -2.86669,3.9667 -3.4,7.3 l 17.9,0" />
    <path
       inkscape:connector-curvature="0"
       id="path4054"
       style="font-size:100px;font-style:normal;font-variant:normal;font-weight:bold;font-stretch:normal;line-height:125%;letter-spacing:0px;word-spacing:0px;fill:#000000;fill-opacity:1;stroke:none;font-family:Source Sans Pro;-inkscape-font-specification:Source Sans Pro Bold"
       d="m 382.8471,968.54789 -6.8,0 0,-10.9 7.6,-0.6 1.7,-13.2 12.2,0 0,13.2 11.9,0 0,11.5 -11.9,0 0,19.9 c -2e-5,2.80001 0.56664,4.83334 1.7,6.1 1.19997,1.20001 2.76664,1.80001 4.7,1.8 0.79997,10e-6 1.59997,-0.1 2.4,-0.3 0.86663,-0.19999 1.6333,-0.43332 2.3,-0.7 l 2.3,10.70001 c -1.33337,0.4 -2.90003,0.8 -4.7,1.2 -1.80003,0.4 -3.90003,0.6 -6.3,0.6 -3.06669,0 -5.70002,-0.4667 -7.9,-1.4 -2.13335,-0.9333 -3.90001,-2.2333 -5.3,-3.9 -1.33335,-1.6667 -2.33334,-3.66667 -3,-6.00001 -0.60001,-2.39999 -0.90001,-5.03332 -0.9,-7.9 l 0,-20.1" />
    <path
       inkscape:connector-curvature="0"
       id="path4056"
       style="font-size:100px;font-style:normal;font-variant:normal;font-weight:bold;font-stretch:normal;line-height:125%;letter-spacing:0px;word-spacing:0px;fill:#000000;fill-opacity:1;stroke:none;font-family:Source Sans Pro;-inkscape-font-specification:Source Sans Pro Bold"
       d="m 419.12835,936.54789 14.7,0 0,17.2 -0.7,8.9 c 1.86664,-1.66662 4.03331,-3.19995 6.5,-4.6 2.46664,-1.46662 5.39997,-2.19995 8.8,-2.2 5.39996,5e-5 9.29995,1.76671 11.7,5.3 2.46662,3.53337 3.69995,8.43337 3.7,14.7 l 0,30.80001 -14.7,0 0,-28.90001 c -4e-5,-3.59997 -0.50004,-6.06663 -1.5,-7.4 -0.93337,-1.3333 -2.4667,-1.99996 -4.6,-2 -1.8667,4e-5 -3.46669,0.43337 -4.8,1.3 -1.33336,0.80003 -2.80002,1.9667 -4.4,3.5 l 0,33.50001 -14.7,0 0,-70.10001" />
    <path
       inkscape:connector-curvature="0"
       id="path4058"
       style="font-size:100px;font-style:normal;font-variant:normal;font-weight:bold;font-stretch:normal;line-height:125%;letter-spacing:0px;word-spacing:0px;fill:#000000;fill-opacity:1;stroke:none;font-family:Source Sans Pro;-inkscape-font-specification:Source Sans Pro Bold"
       d="m 475.6596,957.04789 14.7,0 0,28.9 c -2e-5,3.60002 0.49998,6.06668 1.5,7.4 0.99998,1.33334 2.56664,2.00001 4.7,2 1.86664,10e-6 3.4333,-0.43332 4.7,-1.3 1.26663,-0.86666 2.6333,-2.26665 4.1,-4.2 l 0,-32.8 14.7,0 0,49.60001 -12,0 -1.1,-6.90001 -0.3,0 c -2.13337,2.53331 -4.43337,4.53331 -6.9,6.00001 -2.40003,1.4 -5.30003,2.1 -8.7,2.1 -5.40002,0 -9.33335,-1.7667 -11.8,-5.3 -2.40001,-3.53334 -3.60001,-8.43333 -3.6,-14.70001 l 0,-30.8" />
    <path
       inkscape:connector-curvature="0"
       id="path4060"
       style="font-size:100px;font-style:normal;font-variant:normal;font-weight:bold;font-stretch:normal;line-height:125%;letter-spacing:0px;word-spacing:0px;fill:#000000;fill-opacity:1;stroke:none;font-family:Source Sans Pro;-inkscape-font-specification:Source Sans Pro Bold"
       d="m 532.99554,936.54789 14.7,0 0,17.2 -0.4,7.6 c 1.93331,-1.73329 3.99997,-3.06662 6.2,-4 2.26663,-0.99995 4.56663,-1.49995 6.9,-1.5 2.99996,5e-5 5.69996,0.60005 8.1,1.8 2.39995,1.20005 4.43328,2.90004 6.1,5.1 1.73328,2.13337 3.03328,4.7667 3.9,7.9 0.93328,3.0667 1.39994,6.50003 1.4,10.3 -6e-5,4.26669 -0.60006,8.06668 -1.8,11.4 -1.13339,3.33334 -2.70005,6.16667 -4.7,8.50001 -1.93338,2.2667 -4.16671,4 -6.7,5.2 -2.46671,1.2 -5.03337,1.8 -7.7,1.8 -2.20003,0 -4.43336,-0.5333 -6.7,-1.6 -2.20003,-1.0667 -4.26669,-2.6667 -6.2,-4.8 l -0.4,0 -1.2,5.2 -11.5,0 0,-70.10001 m 14.7,56.1 c 1.33331,1.20001 2.66664,2.03334 4,2.5 1.3333,0.46668 2.6333,0.70001 3.9,0.7 2.5333,10e-6 4.69996,-1.13332 6.5,-3.4 1.79996,-2.33332 2.69996,-6.06665 2.7,-11.2 -4e-5,-8.9333 -2.86671,-13.39996 -8.6,-13.4 -2.93336,4e-5 -5.76669,1.50004 -8.5,4.5 l 0,20.3" />
    <path
       style="font-size:100px;font-style:normal;font-variant:normal;font-weight:bold;font-stretch:normal;line-height:125%;letter-spacing:0px;word-spacing:0px;fill:url(#radialGradient4092);fill-opacity:1;stroke:none;font-family:Source Sans Pro;-inkscape-font-specification:Source Sans Pro Bold"
       d="m 224,456 c -6.62742,0 -12,5.37258 -12,12 0,2.13506 0.55375,4.13808 1.53125,5.875 1.07764,11.77173 -2.76598,28.04704 -11.78125,29.9375 -1.27891,-0.21515 -2.57953,-0.31248 -3.90625,-0.3125 -1.40861,2e-5 -2.78806,0.13248 -4.15625,0.375 -0.0103,-10e-4 -0.021,10e-4 -0.0313,0 C 182.64096,502.63306 180,492.68313 180,488 c 0,-4.41828 -3.58172,-8 -8,-8 -4.41828,0 -8,3.58172 -8,8 0,4.41828 3.58172,8 8,8 4.63448,0 8.66649,8.94387 6.59375,17.09375 -1.14395,1.60243 -2.11964,3.40251 -2.9375,5.40625 -1.33333,3.20003 -2,6.86669 -2,11 0,4.13335 0.66667,7.8271 2,11.09375 1.33333,3.20001 3.08125,5.89375 5.28125,8.09375 0.24141,0.23432 0.50102,0.46453 0.75,0.6875 3.0049,7.9428 -3.13988,25.11245 -7.21875,30.9375 -0.004,0 -0.0275,-0.01 -0.0313,0 C 173.00189,580.9197 172,582.3431 172,584 c 0,2.2091 1.79086,4 4,4 2.20914,0 4,-1.7909 4,-4 0,-0.7396 -0.21255,-1.43685 -0.5625,-2.03125 -0.94125,-8.22396 11.05178,-23.43288 18.71875,-26.46875 1.73181,-0.0207 3.4126,-0.25618 5.0625,-0.625 11.23356,1.73698 25.33032,24.1285 24.90625,35.65625 C 228.0377,591.00485 228,591.5012 228,592 c 0,4.4183 3.58172,8 8,8 4.41828,0 8,-3.5817 8,-8 0,-3.5899 -2.36845,-6.6121 -5.625,-7.625 l -0.0313,0 c -10.66752,-7.59479 -23.42099,-28.95421 -20.5625,-39.65625 0.82278,-1.27278 1.53564,-2.63558 2.15625,-4.125 1.33329,-3.26665 1.99995,-6.9604 2,-11.09375 -5e-5,-4.13331 -0.66671,-7.79997 -2,-11 -0.46668,-1.14332 -0.9815,-2.23734 -1.5625,-3.25 -4.04734,-14.28595 0.2072,-26.35193 8.875,-35.71875 5.04063,-1.42206 8.75,-6.03564 8.75,-11.53125 0,-6.62742 -5.37258,-12 -12,-12 z m -26.15625,59.375 c 2.99997,4e-5 5.27914,1.2792 6.8125,3.8125 1.5333,2.53336 2.28122,5.97919 2.28125,10.3125 -3e-5,4.33335 -0.74795,7.74793 -2.28125,10.28125 -1.53336,2.53334 -3.81253,3.81251 -6.8125,3.8125 -3.06669,10e-6 -5.37293,-1.27916 -6.90625,-3.8125 -1.46668,-2.53332 -2.18751,-5.9479 -2.1875,-10.28125 -1e-5,-4.33331 0.72082,-7.77914 2.1875,-10.3125 1.53332,-2.5333 3.83956,-3.81246 6.90625,-3.8125 z"
       transform="translate(0,452.36218)"
       id="path4046"
       inkscape:connector-curvature="0" />
  </g>
</svg>
